<?xml version="1.0" encoding="UTF-8" standalone="no"?><svg xmlns="http://www.w3.org/2000/svg" xmlns:xlink="http://www.w3.org/1999/xlink" contentStyleType="text/css" height="434px" preserveAspectRatio="none" style="width:536px;height:434px;background:#FFFFFF;" version="1.1" viewBox="0 0 536 434" width="536px" zoomAndPan="magnify"><defs/><g><rect fill="#FFFFFF" height="253.0625" style="stroke:#181818;stroke-width:1.0;" width="10" x="17" y="91.2969"/><rect fill="#FFFFFF" height="231.9297" style="stroke:#181818;stroke-width:1.0;" width="10" x="155" y="112.4297"/><rect fill="#FFFFFF" height="202.7969" style="stroke:#181818;stroke-width:1.0;" width="10" x="280" y="141.5625"/><rect fill="#FFFFFF" height="106.3984" style="stroke:#181818;stroke-width:1.0;" width="10" x="285" y="199.8281"/><rect fill="#FFFFFF" height="173.6641" style="stroke:#181818;stroke-width:1.0;" width="10" x="478" y="170.6953"/><line style="stroke:#181818;stroke-width:0.5;stroke-dasharray:5.0,5.0;" x1="22" x2="22" y1="81.2969" y2="353.3594"/><line style="stroke:#181818;stroke-width:0.5;stroke-dasharray:5.0,5.0;" x1="160" x2="160" y1="81.2969" y2="353.3594"/><line style="stroke:#181818;stroke-width:0.5;stroke-dasharray:5.0,5.0;" x1="285" x2="285" y1="81.2969" y2="353.3594"/><line style="stroke:#181818;stroke-width:0.5;stroke-dasharray:5.0,5.0;" x1="483" x2="483" y1="81.2969" y2="353.3594"/><text fill="#000000" font-family="sans-serif" font-size="14" lengthAdjust="spacing" textLength="28" x="5" y="77.9951">用户</text><ellipse cx="22" cy="13.5" fill="#E2E2F0" rx="8" ry="8" style="stroke:#181818;stroke-width:0.5;"/><path d="M22,21.5 L22,48.5 M9,29.5 L35,29.5 M22,48.5 L9,63.5 M22,48.5 L35,63.5 " fill="none" style="stroke:#181818;stroke-width:0.5;"/><text fill="#000000" font-family="sans-serif" font-size="14" lengthAdjust="spacing" textLength="28" x="5" y="365.3545">用户</text><ellipse cx="22" cy="377.1563" fill="#E2E2F0" rx="8" ry="8" style="stroke:#181818;stroke-width:0.5;"/><path d="M22,385.1563 L22,412.1563 M9,393.1563 L35,393.1563 M22,412.1563 L9,427.1563 M22,412.1563 L35,427.1563 " fill="none" style="stroke:#181818;stroke-width:0.5;"/><rect fill="#E2E2F0" height="30.2969" rx="2.5" ry="2.5" style="stroke:#181818;stroke-width:0.5;" width="56" x="132" y="50"/><text fill="#000000" font-family="sans-serif" font-size="14" lengthAdjust="spacing" textLength="42" x="139" y="69.9951">浏览器</text><rect fill="#E2E2F0" height="30.2969" rx="2.5" ry="2.5" style="stroke:#181818;stroke-width:0.5;" width="56" x="132" y="352.3594"/><text fill="#000000" font-family="sans-serif" font-size="14" lengthAdjust="spacing" textLength="42" x="139" y="372.3545">浏览器</text><rect fill="#90EE90" height="30.2969" rx="2.5" ry="2.5" style="stroke:#181818;stroke-width:0.5;" width="56" x="257" y="50"/><text fill="#000000" font-family="sans-serif" font-size="14" lengthAdjust="spacing" textLength="42" x="264" y="69.9951">服务端</text><rect fill="#90EE90" height="30.2969" rx="2.5" ry="2.5" style="stroke:#181818;stroke-width:0.5;" width="56" x="257" y="352.3594"/><text fill="#000000" font-family="sans-serif" font-size="14" lengthAdjust="spacing" textLength="42" x="264" y="372.3545">服务端</text><rect fill="#FFA500" height="30.2969" rx="2.5" ry="2.5" style="stroke:#181818;stroke-width:0.5;" width="56" x="455" y="50"/><text fill="#000000" font-family="sans-serif" font-size="14" lengthAdjust="spacing" textLength="42" x="462" y="69.9951">数据库</text><rect fill="#FFA500" height="30.2969" rx="2.5" ry="2.5" style="stroke:#181818;stroke-width:0.5;" width="56" x="455" y="352.3594"/><text fill="#000000" font-family="sans-serif" font-size="14" lengthAdjust="spacing" textLength="42" x="462" y="372.3545">数据库</text><rect fill="#FFFFFF" height="253.0625" style="stroke:#181818;stroke-width:1.0;" width="10" x="17" y="91.2969"/><rect fill="#FFFFFF" height="231.9297" style="stroke:#181818;stroke-width:1.0;" width="10" x="155" y="112.4297"/><rect fill="#FFFFFF" height="202.7969" style="stroke:#181818;stroke-width:1.0;" width="10" x="280" y="141.5625"/><rect fill="#FFFFFF" height="106.3984" style="stroke:#181818;stroke-width:1.0;" width="10" x="285" y="199.8281"/><rect fill="#FFFFFF" height="173.6641" style="stroke:#181818;stroke-width:1.0;" width="10" x="478" y="170.6953"/><polygon fill="#181818" points="143,108.4297,153,112.4297,143,116.4297,147,112.4297" style="stroke:#181818;stroke-width:1.0;"/><line style="stroke:#181818;stroke-width:1.0;" x1="27" x2="149" y1="112.4297" y2="112.4297"/><text fill="#000000" font-family="sans-serif" font-size="13" font-weight="bold" lengthAdjust="spacing" textLength="9" x="34" y="107.3638">1</text><text fill="#000000" font-family="sans-serif" font-size="13" lengthAdjust="spacing" textLength="78" x="47" y="107.3638">输入账号密码</text><polygon fill="#181818" points="268,137.5625,278,141.5625,268,145.5625,272,141.5625" style="stroke:#181818;stroke-width:1.0;"/><line style="stroke:#181818;stroke-width:1.0;" x1="165" x2="274" y1="141.5625" y2="141.5625"/><text fill="#000000" font-family="sans-serif" font-size="13" font-weight="bold" lengthAdjust="spacing" textLength="9" x="172" y="136.4966">2</text><text fill="#000000" font-family="sans-serif" font-size="13" lengthAdjust="spacing" textLength="78" x="185" y="136.4966">发送登录请求</text><polygon fill="#181818" points="466,166.6953,476,170.6953,466,174.6953,470,170.6953" style="stroke:#181818;stroke-width:1.0;"/><line style="stroke:#181818;stroke-width:1.0;" x1="290" x2="472" y1="170.6953" y2="170.6953"/><text fill="#000000" font-family="sans-serif" font-size="13" font-weight="bold" lengthAdjust="spacing" textLength="9" x="297" y="165.6294">3</text><text fill="#000000" font-family="sans-serif" font-size="13" lengthAdjust="spacing" textLength="156" x="310" y="165.6294">根据账号从数据库查询密码</text><polygon fill="#181818" points="306,195.8281,296,199.8281,306,203.8281,302,199.8281" style="stroke:#181818;stroke-width:1.0;"/><line style="stroke:#181818;stroke-width:1.0;stroke-dasharray:2.0,2.0;" x1="300" x2="477" y1="199.8281" y2="199.8281"/><text fill="#000000" font-family="sans-serif" font-size="13" font-weight="bold" lengthAdjust="spacing" textLength="9" x="312" y="194.7622">4</text><text fill="#000000" font-family="sans-serif" font-size="13" lengthAdjust="spacing" textLength="104" x="325" y="194.7622">返回对应账户密码</text><line style="stroke:#181818;stroke-width:1.0;" x1="295" x2="337" y1="228.9609" y2="228.9609"/><line style="stroke:#181818;stroke-width:1.0;" x1="337" x2="337" y1="228.9609" y2="241.9609"/><line style="stroke:#181818;stroke-width:1.0;" x1="296" x2="337" y1="241.9609" y2="241.9609"/><polygon fill="#181818" points="306,237.9609,296,241.9609,306,245.9609,302,241.9609" style="stroke:#181818;stroke-width:1.0;"/><text fill="#000000" font-family="sans-serif" font-size="13" font-weight="bold" lengthAdjust="spacing" textLength="9" x="302" y="223.895">5</text><text fill="#000000" font-family="sans-serif" font-size="13" lengthAdjust="spacing" textLength="52" x="315" y="223.895">验证密码</text><path d="M300,254.9609 L300,279.9609 L529,279.9609 L529,264.9609 L519,254.9609 L300,254.9609 " fill="#FEFFDD" style="stroke:#181818;stroke-width:0.5;"/><path d="M519,254.9609 L519,264.9609 L529,264.9609 L519,254.9609 " fill="#FEFFDD" style="stroke:#181818;stroke-width:0.5;"/><text fill="#000000" font-family="sans-serif" font-size="13" lengthAdjust="spacing" textLength="208" x="306" y="272.0278">如果验证通过：保存登录凭证到缓存</text><polygon fill="#181818" points="176,302.2266,166,306.2266,176,310.2266,172,306.2266" style="stroke:#181818;stroke-width:1.0;"/><line style="stroke:#181818;stroke-width:1.0;stroke-dasharray:2.0,2.0;" x1="170" x2="279" y1="306.2266" y2="306.2266"/><text fill="#000000" font-family="sans-serif" font-size="13" font-weight="bold" lengthAdjust="spacing" textLength="9" x="182" y="301.1606">6</text><text fill="#000000" font-family="sans-serif" font-size="13" lengthAdjust="spacing" textLength="78" x="195" y="301.1606">返回请求结果</text><polygon fill="#181818" points="38,331.3594,28,335.3594,38,339.3594,34,335.3594" style="stroke:#181818;stroke-width:1.0;"/><line style="stroke:#181818;stroke-width:1.0;stroke-dasharray:2.0,2.0;" x1="32" x2="154" y1="335.3594" y2="335.3594"/><text fill="#000000" font-family="sans-serif" font-size="13" font-weight="bold" lengthAdjust="spacing" textLength="9" x="44" y="330.2935">7</text><text fill="#000000" font-family="sans-serif" font-size="13" lengthAdjust="spacing" textLength="91" x="57" y="330.2935">渲染结果到页面</text></g></svg>