<?xml version="1.0" encoding="UTF-8" standalone="no"?><svg xmlns="http://www.w3.org/2000/svg" xmlns:xlink="http://www.w3.org/1999/xlink" contentStyleType="text/css" height="476px" preserveAspectRatio="none" style="width:504px;height:476px;background:#FFFFFF;" version="1.1" viewBox="0 0 504 476" width="504px" zoomAndPan="magnify"><defs/><g><rect fill="#FFFFFF" height="295.1953" style="stroke:#181818;stroke-width:1.0;" width="10" x="17" y="91.2969"/><rect fill="#FFFFFF" height="274.0625" style="stroke:#181818;stroke-width:1.0;" width="10" x="163" y="112.4297"/><rect fill="#FFFFFF" height="244.9297" style="stroke:#181818;stroke-width:1.0;" width="10" x="288" y="141.5625"/><rect fill="#FFFFFF" height="127.5313" style="stroke:#181818;stroke-width:1.0;" width="10" x="293" y="220.8281"/><rect fill="#FFFFFF" height="96.3984" style="stroke:#181818;stroke-width:1.0;" width="10" x="465" y="290.0938"/><line style="stroke:#181818;stroke-width:0.5;stroke-dasharray:5.0,5.0;" x1="22" x2="22" y1="81.2969" y2="395.4922"/><line style="stroke:#181818;stroke-width:0.5;stroke-dasharray:5.0,5.0;" x1="168" x2="168" y1="81.2969" y2="395.4922"/><line style="stroke:#181818;stroke-width:0.5;stroke-dasharray:5.0,5.0;" x1="293" x2="293" y1="81.2969" y2="395.4922"/><line style="stroke:#181818;stroke-width:0.5;stroke-dasharray:5.0,5.0;" x1="470" x2="470" y1="81.2969" y2="395.4922"/><text fill="#000000" font-family="sans-serif" font-size="14" lengthAdjust="spacing" textLength="28" x="5" y="77.9951">用户</text><ellipse cx="22" cy="13.5" fill="#E2E2F0" rx="8" ry="8" style="stroke:#181818;stroke-width:0.5;"/><path d="M22,21.5 L22,48.5 M9,29.5 L35,29.5 M22,48.5 L9,63.5 M22,48.5 L35,63.5 " fill="none" style="stroke:#181818;stroke-width:0.5;"/><text fill="#000000" font-family="sans-serif" font-size="14" lengthAdjust="spacing" textLength="28" x="5" y="407.4873">用户</text><ellipse cx="22" cy="419.2891" fill="#E2E2F0" rx="8" ry="8" style="stroke:#181818;stroke-width:0.5;"/><path d="M22,427.2891 L22,454.2891 M9,435.2891 L35,435.2891 M22,454.2891 L9,469.2891 M22,454.2891 L35,469.2891 " fill="none" style="stroke:#181818;stroke-width:0.5;"/><rect fill="#E2E2F0" height="30.2969" rx="2.5" ry="2.5" style="stroke:#181818;stroke-width:0.5;" width="56" x="140" y="50"/><text fill="#000000" font-family="sans-serif" font-size="14" lengthAdjust="spacing" textLength="42" x="147" y="69.9951">浏览器</text><rect fill="#E2E2F0" height="30.2969" rx="2.5" ry="2.5" style="stroke:#181818;stroke-width:0.5;" width="56" x="140" y="394.4922"/><text fill="#000000" font-family="sans-serif" font-size="14" lengthAdjust="spacing" textLength="42" x="147" y="414.4873">浏览器</text><rect fill="#90EE90" height="30.2969" rx="2.5" ry="2.5" style="stroke:#181818;stroke-width:0.5;" width="56" x="265" y="50"/><text fill="#000000" font-family="sans-serif" font-size="14" lengthAdjust="spacing" textLength="42" x="272" y="69.9951">服务端</text><rect fill="#90EE90" height="30.2969" rx="2.5" ry="2.5" style="stroke:#181818;stroke-width:0.5;" width="56" x="265" y="394.4922"/><text fill="#000000" font-family="sans-serif" font-size="14" lengthAdjust="spacing" textLength="42" x="272" y="414.4873">服务端</text><rect fill="#FFA500" height="30.2969" rx="2.5" ry="2.5" style="stroke:#181818;stroke-width:0.5;" width="56" x="442" y="50"/><text fill="#000000" font-family="sans-serif" font-size="14" lengthAdjust="spacing" textLength="42" x="449" y="69.9951">数据库</text><rect fill="#FFA500" height="30.2969" rx="2.5" ry="2.5" style="stroke:#181818;stroke-width:0.5;" width="56" x="442" y="394.4922"/><text fill="#000000" font-family="sans-serif" font-size="14" lengthAdjust="spacing" textLength="42" x="449" y="414.4873">数据库</text><rect fill="#FFFFFF" height="295.1953" style="stroke:#181818;stroke-width:1.0;" width="10" x="17" y="91.2969"/><rect fill="#FFFFFF" height="274.0625" style="stroke:#181818;stroke-width:1.0;" width="10" x="163" y="112.4297"/><rect fill="#FFFFFF" height="244.9297" style="stroke:#181818;stroke-width:1.0;" width="10" x="288" y="141.5625"/><rect fill="#FFFFFF" height="127.5313" style="stroke:#181818;stroke-width:1.0;" width="10" x="293" y="220.8281"/><rect fill="#FFFFFF" height="96.3984" style="stroke:#181818;stroke-width:1.0;" width="10" x="465" y="290.0938"/><polygon fill="#181818" points="151,108.4297,161,112.4297,151,116.4297,155,112.4297" style="stroke:#181818;stroke-width:1.0;"/><line style="stroke:#181818;stroke-width:1.0;" x1="27" x2="157" y1="112.4297" y2="112.4297"/><text fill="#000000" font-family="sans-serif" font-size="13" font-weight="bold" lengthAdjust="spacing" textLength="9" x="34" y="107.3638">1</text><text fill="#000000" font-family="sans-serif" font-size="13" lengthAdjust="spacing" textLength="104" x="47" y="107.3638">填写题目相关信息</text><polygon fill="#181818" points="276,137.5625,286,141.5625,276,145.5625,280,141.5625" style="stroke:#181818;stroke-width:1.0;"/><line style="stroke:#181818;stroke-width:1.0;" x1="173" x2="282" y1="141.5625" y2="141.5625"/><text fill="#000000" font-family="sans-serif" font-size="13" font-weight="bold" lengthAdjust="spacing" textLength="9" x="180" y="136.4966">2</text><text fill="#000000" font-family="sans-serif" font-size="13" lengthAdjust="spacing" textLength="78" x="193" y="136.4966">发送操作请求</text><line style="stroke:#181818;stroke-width:1.0;" x1="298" x2="340" y1="170.6953" y2="170.6953"/><line style="stroke:#181818;stroke-width:1.0;" x1="340" x2="340" y1="170.6953" y2="183.6953"/><line style="stroke:#181818;stroke-width:1.0;" x1="299" x2="340" y1="183.6953" y2="183.6953"/><polygon fill="#181818" points="309,179.6953,299,183.6953,309,187.6953,305,183.6953" style="stroke:#181818;stroke-width:1.0;"/><text fill="#000000" font-family="sans-serif" font-size="13" font-weight="bold" lengthAdjust="spacing" textLength="9" x="305" y="165.6294">3</text><text fill="#000000" font-family="sans-serif" font-size="13" lengthAdjust="spacing" textLength="91" x="318" y="165.6294">验证操作合法性</text><line style="stroke:#181818;stroke-width:1.0;" x1="298" x2="345" y1="207.8281" y2="207.8281"/><line style="stroke:#181818;stroke-width:1.0;" x1="345" x2="345" y1="207.8281" y2="220.8281"/><line style="stroke:#181818;stroke-width:1.0;" x1="304" x2="345" y1="220.8281" y2="220.8281"/><polygon fill="#181818" points="314,216.8281,304,220.8281,314,224.8281,310,220.8281" style="stroke:#181818;stroke-width:1.0;"/><text fill="#000000" font-family="sans-serif" font-size="13" font-weight="bold" lengthAdjust="spacing" textLength="9" x="310" y="202.7622">4</text><text fill="#000000" font-family="sans-serif" font-size="13" lengthAdjust="spacing" textLength="117" x="323" y="202.7622">验证请求参数合法性</text><path d="M308,238.8281 L308,263.8281 L446,263.8281 L446,248.8281 L436,238.8281 L308,238.8281 " fill="#FEFFDD" style="stroke:#181818;stroke-width:0.5;"/><path d="M436,238.8281 L436,248.8281 L446,248.8281 L436,238.8281 " fill="#FEFFDD" style="stroke:#181818;stroke-width:0.5;"/><text fill="#000000" font-family="sans-serif" font-size="13" lengthAdjust="spacing" textLength="117" x="314" y="255.895">如果以上均验证通过</text><polygon fill="#181818" points="453,286.0938,463,290.0938,453,294.0938,457,290.0938" style="stroke:#181818;stroke-width:1.0;"/><line style="stroke:#181818;stroke-width:1.0;" x1="303" x2="459" y1="290.0938" y2="290.0938"/><text fill="#000000" font-family="sans-serif" font-size="13" font-weight="bold" lengthAdjust="spacing" textLength="9" x="310" y="285.0278">5</text><text fill="#000000" font-family="sans-serif" font-size="13" lengthAdjust="spacing" textLength="130" x="323" y="285.0278">发送操作请求到数据库</text><polygon fill="#181818" points="314,315.2266,304,319.2266,314,323.2266,310,319.2266" style="stroke:#181818;stroke-width:1.0;"/><line style="stroke:#181818;stroke-width:1.0;stroke-dasharray:2.0,2.0;" x1="308" x2="464" y1="319.2266" y2="319.2266"/><text fill="#000000" font-family="sans-serif" font-size="13" font-weight="bold" lengthAdjust="spacing" textLength="9" x="320" y="314.1606">6</text><text fill="#000000" font-family="sans-serif" font-size="13" lengthAdjust="spacing" textLength="78" x="333" y="314.1606">返回操作结果</text><polygon fill="#181818" points="184,344.3594,174,348.3594,184,352.3594,180,348.3594" style="stroke:#181818;stroke-width:1.0;"/><line style="stroke:#181818;stroke-width:1.0;stroke-dasharray:2.0,2.0;" x1="178" x2="287" y1="348.3594" y2="348.3594"/><text fill="#000000" font-family="sans-serif" font-size="13" font-weight="bold" lengthAdjust="spacing" textLength="9" x="190" y="343.2935">7</text><text fill="#000000" font-family="sans-serif" font-size="13" lengthAdjust="spacing" textLength="78" x="203" y="343.2935">返回请求结果</text><polygon fill="#181818" points="38,373.4922,28,377.4922,38,381.4922,34,377.4922" style="stroke:#181818;stroke-width:1.0;"/><line style="stroke:#181818;stroke-width:1.0;stroke-dasharray:2.0,2.0;" x1="32" x2="162" y1="377.4922" y2="377.4922"/><text fill="#000000" font-family="sans-serif" font-size="13" font-weight="bold" lengthAdjust="spacing" textLength="9" x="44" y="372.4263">8</text><text fill="#000000" font-family="sans-serif" font-size="13" lengthAdjust="spacing" textLength="91" x="57" y="372.4263">渲染结果到页面</text></g></svg>