<?xml version="1.0" encoding="UTF-8" standalone="no"?><svg xmlns="http://www.w3.org/2000/svg" xmlns:xlink="http://www.w3.org/1999/xlink" contentStyleType="text/css" height="457px" preserveAspectRatio="none" style="width:687px;height:457px;background:#FFFFFF;" version="1.1" viewBox="0 0 687 457" width="687px" zoomAndPan="magnify"><defs/><g><rect fill="#FFFFFF" height="276.1953" style="stroke:#181818;stroke-width:1.0;" width="10" x="17" y="91.2969"/><rect fill="#FFFFFF" height="255.0625" style="stroke:#181818;stroke-width:1.0;" width="10" x="181" y="112.4297"/><rect fill="#FFFFFF" height="225.9297" style="stroke:#181818;stroke-width:1.0;" width="10" x="457" y="141.5625"/><rect fill="#FFFFFF" height="67.2656" style="stroke:#181818;stroke-width:1.0;" width="10" x="462" y="300.2266"/><rect fill="#FFFFFF" height="188.7969" style="stroke:#181818;stroke-width:1.0;" width="10" x="582" y="178.6953"/><rect fill="#FFFFFF" height="125.5313" style="stroke:#181818;stroke-width:1.0;" width="10" x="587" y="241.9609"/><rect fill="#FFFFFF" height="154.6641" style="stroke:#181818;stroke-width:1.0;" width="10" x="648" y="212.8281"/><rect fill="#FFFFFF" height="96.3984" style="stroke:#181818;stroke-width:1.0;" width="10" x="653" y="271.0938"/><line style="stroke:#181818;stroke-width:0.5;stroke-dasharray:5.0,5.0;" x1="22" x2="22" y1="81.2969" y2="376.4922"/><line style="stroke:#181818;stroke-width:0.5;stroke-dasharray:5.0,5.0;" x1="186" x2="186" y1="81.2969" y2="376.4922"/><line style="stroke:#181818;stroke-width:0.5;stroke-dasharray:5.0,5.0;" x1="462" x2="462" y1="81.2969" y2="376.4922"/><line style="stroke:#181818;stroke-width:0.5;stroke-dasharray:5.0,5.0;" x1="587" x2="587" y1="81.2969" y2="376.4922"/><line style="stroke:#181818;stroke-width:0.5;stroke-dasharray:5.0,5.0;" x1="653" x2="653" y1="81.2969" y2="376.4922"/><text fill="#000000" font-family="sans-serif" font-size="14" lengthAdjust="spacing" textLength="28" x="5" y="77.9951">用户</text><ellipse cx="22" cy="13.5" fill="#E2E2F0" rx="8" ry="8" style="stroke:#181818;stroke-width:0.5;"/><path d="M22,21.5 L22,48.5 M9,29.5 L35,29.5 M22,48.5 L9,63.5 M22,48.5 L35,63.5 " fill="none" style="stroke:#181818;stroke-width:0.5;"/><text fill="#000000" font-family="sans-serif" font-size="14" lengthAdjust="spacing" textLength="28" x="5" y="388.4873">用户</text><ellipse cx="22" cy="400.2891" fill="#E2E2F0" rx="8" ry="8" style="stroke:#181818;stroke-width:0.5;"/><path d="M22,408.2891 L22,435.2891 M9,416.2891 L35,416.2891 M22,435.2891 L9,450.2891 M22,435.2891 L35,450.2891 " fill="none" style="stroke:#181818;stroke-width:0.5;"/><rect fill="#E2E2F0" height="30.2969" rx="2.5" ry="2.5" style="stroke:#181818;stroke-width:0.5;" width="56" x="158" y="50"/><text fill="#000000" font-family="sans-serif" font-size="14" lengthAdjust="spacing" textLength="42" x="165" y="69.9951">浏览器</text><rect fill="#E2E2F0" height="30.2969" rx="2.5" ry="2.5" style="stroke:#181818;stroke-width:0.5;" width="56" x="158" y="375.4922"/><text fill="#000000" font-family="sans-serif" font-size="14" lengthAdjust="spacing" textLength="42" x="165" y="395.4873">浏览器</text><rect fill="#FFA500" height="30.2969" rx="2.5" ry="2.5" style="stroke:#181818;stroke-width:0.5;" width="56" x="434" y="50"/><text fill="#000000" font-family="sans-serif" font-size="14" lengthAdjust="spacing" textLength="42" x="441" y="69.9951">服务端</text><rect fill="#FFA500" height="30.2969" rx="2.5" ry="2.5" style="stroke:#181818;stroke-width:0.5;" width="56" x="434" y="375.4922"/><text fill="#000000" font-family="sans-serif" font-size="14" lengthAdjust="spacing" textLength="42" x="441" y="395.4873">服务端</text><rect fill="#E2E2F0" height="30.2969" rx="2.5" ry="2.5" style="stroke:#181818;stroke-width:0.5;" width="56" x="559" y="50"/><text fill="#000000" font-family="sans-serif" font-size="14" lengthAdjust="spacing" textLength="42" x="566" y="69.9951">数据库</text><rect fill="#E2E2F0" height="30.2969" rx="2.5" ry="2.5" style="stroke:#181818;stroke-width:0.5;" width="56" x="559" y="375.4922"/><text fill="#000000" font-family="sans-serif" font-size="14" lengthAdjust="spacing" textLength="42" x="566" y="395.4873">数据库</text><rect fill="#E2E2F0" height="30.2969" rx="2.5" ry="2.5" style="stroke:#181818;stroke-width:0.5;" width="56" x="625" y="50"/><text fill="#000000" font-family="sans-serif" font-size="14" lengthAdjust="spacing" textLength="42" x="632" y="69.9951">判题机</text><rect fill="#E2E2F0" height="30.2969" rx="2.5" ry="2.5" style="stroke:#181818;stroke-width:0.5;" width="56" x="625" y="375.4922"/><text fill="#000000" font-family="sans-serif" font-size="14" lengthAdjust="spacing" textLength="42" x="632" y="395.4873">判题机</text><rect fill="#FFFFFF" height="276.1953" style="stroke:#181818;stroke-width:1.0;" width="10" x="17" y="91.2969"/><rect fill="#FFFFFF" height="255.0625" style="stroke:#181818;stroke-width:1.0;" width="10" x="181" y="112.4297"/><rect fill="#FFFFFF" height="225.9297" style="stroke:#181818;stroke-width:1.0;" width="10" x="457" y="141.5625"/><rect fill="#FFFFFF" height="67.2656" style="stroke:#181818;stroke-width:1.0;" width="10" x="462" y="300.2266"/><rect fill="#FFFFFF" height="188.7969" style="stroke:#181818;stroke-width:1.0;" width="10" x="582" y="178.6953"/><rect fill="#FFFFFF" height="125.5313" style="stroke:#181818;stroke-width:1.0;" width="10" x="587" y="241.9609"/><rect fill="#FFFFFF" height="154.6641" style="stroke:#181818;stroke-width:1.0;" width="10" x="648" y="212.8281"/><rect fill="#FFFFFF" height="96.3984" style="stroke:#181818;stroke-width:1.0;" width="10" x="653" y="271.0938"/><polygon fill="#181818" points="169,108.4297,179,112.4297,169,116.4297,173,112.4297" style="stroke:#181818;stroke-width:1.0;"/><line style="stroke:#181818;stroke-width:1.0;" x1="27" x2="175" y1="112.4297" y2="112.4297"/><text fill="#000000" font-family="sans-serif" font-size="13" font-weight="bold" lengthAdjust="spacing" textLength="9" x="34" y="107.3638">1</text><text fill="#000000" font-family="sans-serif" font-size="13" lengthAdjust="spacing" textLength="52" x="47" y="107.3638">输入代码</text><polygon fill="#181818" points="445,137.5625,455,141.5625,445,145.5625,449,141.5625" style="stroke:#181818;stroke-width:1.0;"/><line style="stroke:#181818;stroke-width:1.0;" x1="191" x2="451" y1="141.5625" y2="141.5625"/><text fill="#000000" font-family="sans-serif" font-size="13" font-weight="bold" lengthAdjust="spacing" textLength="9" x="198" y="136.4966">2</text><text fill="#000000" font-family="sans-serif" font-size="13" lengthAdjust="spacing" textLength="169" x="211" y="136.4966">提交代码并发送编译运行请求</text><line style="stroke:#181818;stroke-width:1.0;" x1="467" x2="514" y1="165.6953" y2="165.6953"/><line style="stroke:#181818;stroke-width:1.0;" x1="514" x2="514" y1="165.6953" y2="178.6953"/><line style="stroke:#181818;stroke-width:1.0;" x1="473" x2="514" y1="178.6953" y2="178.6953"/><polygon fill="#181818" points="483,174.6953,473,178.6953,483,182.6953,479,178.6953" style="stroke:#181818;stroke-width:1.0;"/><text fill="#000000" font-family="sans-serif" font-size="13" font-weight="bold" lengthAdjust="spacing" textLength="9" x="479" y="160.6294">3</text><text fill="#000000" font-family="sans-serif" font-size="13" lengthAdjust="spacing" textLength="52" x="492" y="160.6294">编译代码</text><polygon fill="#181818" points="570,208.8281,580,212.8281,570,216.8281,574,212.8281" style="stroke:#181818;stroke-width:1.0;"/><line style="stroke:#181818;stroke-width:1.0;" x1="467" x2="576" y1="212.8281" y2="212.8281"/><text fill="#000000" font-family="sans-serif" font-size="13" font-weight="bold" lengthAdjust="spacing" textLength="9" x="474" y="207.7622">4</text><text fill="#000000" font-family="sans-serif" font-size="13" lengthAdjust="spacing" textLength="78" x="487" y="207.7622">添加判题请求</text><polygon fill="#181818" points="636,237.9609,646,241.9609,636,245.9609,640,241.9609" style="stroke:#181818;stroke-width:1.0;"/><line style="stroke:#181818;stroke-width:1.0;" x1="467" x2="642" y1="241.9609" y2="241.9609"/><text fill="#000000" font-family="sans-serif" font-size="13" font-weight="bold" lengthAdjust="spacing" textLength="9" x="474" y="236.895">5</text><text fill="#000000" font-family="sans-serif" font-size="13" lengthAdjust="spacing" textLength="78" x="487" y="236.895">提交运行请求</text><polygon fill="#181818" points="478,267.0938,468,271.0938,478,275.0938,474,271.0938" style="stroke:#181818;stroke-width:1.0;"/><line style="stroke:#181818;stroke-width:1.0;stroke-dasharray:2.0,2.0;" x1="472" x2="586" y1="271.0938" y2="271.0938"/><text fill="#000000" font-family="sans-serif" font-size="13" font-weight="bold" lengthAdjust="spacing" textLength="9" x="484" y="266.0278">6</text><text fill="#000000" font-family="sans-serif" font-size="13" lengthAdjust="spacing" textLength="78" x="497" y="266.0278">返回添加结果</text><polygon fill="#181818" points="483,296.2266,473,300.2266,483,304.2266,479,300.2266" style="stroke:#181818;stroke-width:1.0;"/><line style="stroke:#181818;stroke-width:1.0;stroke-dasharray:2.0,2.0;" x1="477" x2="652" y1="300.2266" y2="300.2266"/><text fill="#000000" font-family="sans-serif" font-size="13" font-weight="bold" lengthAdjust="spacing" textLength="9" x="489" y="295.1606">7</text><text fill="#000000" font-family="sans-serif" font-size="13" lengthAdjust="spacing" textLength="104" x="502" y="295.1606">返回代码运行结果</text><polygon fill="#181818" points="202,325.3594,192,329.3594,202,333.3594,198,329.3594" style="stroke:#181818;stroke-width:1.0;"/><line style="stroke:#181818;stroke-width:1.0;stroke-dasharray:2.0,2.0;" x1="196" x2="461" y1="329.3594" y2="329.3594"/><text fill="#000000" font-family="sans-serif" font-size="13" font-weight="bold" lengthAdjust="spacing" textLength="9" x="208" y="324.2935">8</text><text fill="#000000" font-family="sans-serif" font-size="13" lengthAdjust="spacing" textLength="229" x="221" y="324.2935">返回提交请求ID（questionSubmitId）</text><polygon fill="#181818" points="38,354.4922,28,358.4922,38,362.4922,34,358.4922" style="stroke:#181818;stroke-width:1.0;"/><line style="stroke:#181818;stroke-width:1.0;stroke-dasharray:2.0,2.0;" x1="32" x2="180" y1="358.4922" y2="358.4922"/><text fill="#000000" font-family="sans-serif" font-size="13" font-weight="bold" lengthAdjust="spacing" textLength="9" x="44" y="353.4263">9</text><text fill="#000000" font-family="sans-serif" font-size="13" lengthAdjust="spacing" textLength="117" x="57" y="353.4263">渲染返回结果到页面</text></g></svg>