<?xml version="1.0" encoding="UTF-8" standalone="no"?><svg xmlns="http://www.w3.org/2000/svg" xmlns:xlink="http://www.w3.org/1999/xlink" contentStyleType="text/css" height="369px" preserveAspectRatio="none" style="width:514px;height:369px;background:#FFFFFF;" version="1.1" viewBox="0 0 514 369" width="514px" zoomAndPan="magnify"><defs/><g><rect fill="#FFFFFF" height="188.7969" style="stroke:#181818;stroke-width:1.0;" width="10" x="17" y="91.2969"/><rect fill="#FFFFFF" height="167.6641" style="stroke:#181818;stroke-width:1.0;" width="10" x="155" y="112.4297"/><rect fill="#FFFFFF" height="96.3984" style="stroke:#181818;stroke-width:1.0;" width="10" x="384" y="183.6953"/><rect fill="#FFFFFF" height="67.2656" style="stroke:#181818;stroke-width:1.0;" width="10" x="389" y="212.8281"/><line style="stroke:#181818;stroke-width:0.5;stroke-dasharray:5.0,5.0;" x1="22" x2="22" y1="81.2969" y2="289.0938"/><line style="stroke:#181818;stroke-width:0.5;stroke-dasharray:5.0,5.0;" x1="160" x2="160" y1="81.2969" y2="289.0938"/><line style="stroke:#181818;stroke-width:0.5;stroke-dasharray:5.0,5.0;" x1="389" x2="389" y1="81.2969" y2="289.0938"/><line style="stroke:#181818;stroke-width:0.5;stroke-dasharray:5.0,5.0;" x1="467" x2="467" y1="81.2969" y2="289.0938"/><text fill="#000000" font-family="sans-serif" font-size="14" lengthAdjust="spacing" textLength="28" x="5" y="77.9951">用户</text><ellipse cx="22" cy="13.5" fill="#E2E2F0" rx="8" ry="8" style="stroke:#181818;stroke-width:0.5;"/><path d="M22,21.5 L22,48.5 M9,29.5 L35,29.5 M22,48.5 L9,63.5 M22,48.5 L35,63.5 " fill="none" style="stroke:#181818;stroke-width:0.5;"/><text fill="#000000" font-family="sans-serif" font-size="14" lengthAdjust="spacing" textLength="28" x="5" y="301.0889">用户</text><ellipse cx="22" cy="312.8906" fill="#E2E2F0" rx="8" ry="8" style="stroke:#181818;stroke-width:0.5;"/><path d="M22,320.8906 L22,347.8906 M9,328.8906 L35,328.8906 M22,347.8906 L9,362.8906 M22,347.8906 L35,362.8906 " fill="none" style="stroke:#181818;stroke-width:0.5;"/><rect fill="#FFA500" height="30.2969" rx="2.5" ry="2.5" style="stroke:#181818;stroke-width:0.5;" width="70" x="125" y="50"/><text fill="#000000" font-family="sans-serif" font-size="14" lengthAdjust="spacing" textLength="56" x="132" y="69.9951">题目模块</text><rect fill="#FFA500" height="30.2969" rx="2.5" ry="2.5" style="stroke:#181818;stroke-width:0.5;" width="70" x="125" y="288.0938"/><text fill="#000000" font-family="sans-serif" font-size="14" lengthAdjust="spacing" textLength="56" x="132" y="308.0889">题目模块</text><rect fill="#FFA500" height="30.2969" rx="2.5" ry="2.5" style="stroke:#181818;stroke-width:0.5;" width="56" x="361" y="50"/><text fill="#000000" font-family="sans-serif" font-size="14" lengthAdjust="spacing" textLength="42" x="368" y="69.9951">数据库</text><rect fill="#FFA500" height="30.2969" rx="2.5" ry="2.5" style="stroke:#181818;stroke-width:0.5;" width="56" x="361" y="288.0938"/><text fill="#000000" font-family="sans-serif" font-size="14" lengthAdjust="spacing" textLength="42" x="368" y="308.0889">数据库</text><rect fill="#FFA500" height="30.2969" rx="2.5" ry="2.5" style="stroke:#181818;stroke-width:0.5;" width="81" x="427" y="50"/><text fill="#000000" font-family="sans-serif" font-size="14" lengthAdjust="spacing" textLength="67" x="434" y="69.9951">RabbitMQ</text><rect fill="#FFA500" height="30.2969" rx="2.5" ry="2.5" style="stroke:#181818;stroke-width:0.5;" width="81" x="427" y="288.0938"/><text fill="#000000" font-family="sans-serif" font-size="14" lengthAdjust="spacing" textLength="67" x="434" y="308.0889">RabbitMQ</text><rect fill="#FFFFFF" height="188.7969" style="stroke:#181818;stroke-width:1.0;" width="10" x="17" y="91.2969"/><rect fill="#FFFFFF" height="167.6641" style="stroke:#181818;stroke-width:1.0;" width="10" x="155" y="112.4297"/><rect fill="#FFFFFF" height="96.3984" style="stroke:#181818;stroke-width:1.0;" width="10" x="384" y="183.6953"/><rect fill="#FFFFFF" height="67.2656" style="stroke:#181818;stroke-width:1.0;" width="10" x="389" y="212.8281"/><polygon fill="#181818" points="143,108.4297,153,112.4297,143,116.4297,147,112.4297" style="stroke:#181818;stroke-width:1.0;"/><line style="stroke:#181818;stroke-width:1.0;" x1="27" x2="149" y1="112.4297" y2="112.4297"/><text fill="#000000" font-family="sans-serif" font-size="13" font-weight="bold" lengthAdjust="spacing" textLength="9" x="34" y="107.3638">1</text><text fill="#000000" font-family="sans-serif" font-size="13" lengthAdjust="spacing" textLength="78" x="47" y="107.3638">提交判题请求</text><line style="stroke:#181818;stroke-width:1.0;" x1="165" x2="207" y1="141.5625" y2="141.5625"/><line style="stroke:#181818;stroke-width:1.0;" x1="207" x2="207" y1="141.5625" y2="154.5625"/><line style="stroke:#181818;stroke-width:1.0;" x1="166" x2="207" y1="154.5625" y2="154.5625"/><polygon fill="#181818" points="176,150.5625,166,154.5625,176,158.5625,172,154.5625" style="stroke:#181818;stroke-width:1.0;"/><text fill="#000000" font-family="sans-serif" font-size="13" font-weight="bold" lengthAdjust="spacing" textLength="9" x="172" y="136.4966">2</text><text fill="#000000" font-family="sans-serif" font-size="13" lengthAdjust="spacing" textLength="117" x="185" y="136.4966">校验权限和请求数据</text><polygon fill="#181818" points="372,179.6953,382,183.6953,372,187.6953,376,183.6953" style="stroke:#181818;stroke-width:1.0;"/><line style="stroke:#181818;stroke-width:1.0;" x1="165" x2="378" y1="183.6953" y2="183.6953"/><text fill="#000000" font-family="sans-serif" font-size="13" font-weight="bold" lengthAdjust="spacing" textLength="9" x="172" y="178.6294">3</text><text fill="#000000" font-family="sans-serif" font-size="13" lengthAdjust="spacing" textLength="104" x="185" y="178.6294">添加代码提交记录</text><polygon fill="#181818" points="176,208.8281,166,212.8281,176,216.8281,172,212.8281" style="stroke:#181818;stroke-width:1.0;"/><line style="stroke:#181818;stroke-width:1.0;stroke-dasharray:2.0,2.0;" x1="170" x2="388" y1="212.8281" y2="212.8281"/><text fill="#000000" font-family="sans-serif" font-size="13" font-weight="bold" lengthAdjust="spacing" textLength="9" x="182" y="207.7622">4</text><text fill="#000000" font-family="sans-serif" font-size="13" lengthAdjust="spacing" textLength="182" x="195" y="207.7622">返回添加结果（是否添加成功）</text><polygon fill="#181818" points="455.5,237.9609,465.5,241.9609,455.5,245.9609,459.5,241.9609" style="stroke:#181818;stroke-width:1.0;"/><line style="stroke:#181818;stroke-width:1.0;" x1="165" x2="461.5" y1="241.9609" y2="241.9609"/><text fill="#000000" font-family="sans-serif" font-size="13" font-weight="bold" lengthAdjust="spacing" textLength="9" x="172" y="236.895">5</text><text fill="#000000" font-family="sans-serif" font-size="13" lengthAdjust="spacing" textLength="149" x="185" y="236.895">生产消息放入rabbitMQ中</text><polygon fill="#181818" points="38,267.0938,28,271.0938,38,275.0938,34,271.0938" style="stroke:#181818;stroke-width:1.0;"/><line style="stroke:#181818;stroke-width:1.0;stroke-dasharray:2.0,2.0;" x1="32" x2="154" y1="271.0938" y2="271.0938"/><text fill="#000000" font-family="sans-serif" font-size="13" font-weight="bold" lengthAdjust="spacing" textLength="9" x="44" y="266.0278">6</text><text fill="#000000" font-family="sans-serif" font-size="13" lengthAdjust="spacing" textLength="91" x="57" y="266.0278">返回提交记录ID</text></g></svg>