<?xml version="1.0" encoding="UTF-8" standalone="no"?><svg xmlns="http://www.w3.org/2000/svg" xmlns:xlink="http://www.w3.org/1999/xlink" contentStyleType="text/css" height="352px" preserveAspectRatio="none" style="width:334px;height:352px;background:#FFFFFF;" version="1.1" viewBox="0 0 334 352" width="334px" zoomAndPan="magnify"><defs/><g><ellipse cx="167" cy="20" fill="#222222" rx="10" ry="10" style="stroke:#222222;stroke-width:1.0;"/><rect fill="#F1F1F1" height="33.9688" rx="12.5" ry="12.5" style="stroke:#181818;stroke-width:0.5;" width="157" x="88.5" y="50"/><text fill="#000000" font-family="sans-serif" font-size="12" lengthAdjust="spacing" textLength="137" x="98.5" y="71.1387">1、保存代码到 java 文件</text><rect fill="#F1F1F1" height="33.9688" rx="12.5" ry="12.5" style="stroke:#181818;stroke-width:0.5;" width="125" x="104.5" y="103.9688"/><text fill="#000000" font-family="sans-serif" font-size="12" lengthAdjust="spacing" textLength="101" x="114.5" y="125.1074">2、编译 java 文件</text><rect fill="#F1F1F1" height="33.9688" rx="12.5" ry="12.5" style="stroke:#181818;stroke-width:0.5;" width="312" x="11" y="157.9375"/><text fill="#000000" font-family="sans-serif" font-size="12" lengthAdjust="spacing" textLength="292" x="21" y="179.0762">3、在docker中执行编译后的java代码并得到输出结果</text><rect fill="#F1F1F1" height="33.9688" rx="12.5" ry="12.5" style="stroke:#181818;stroke-width:0.5;" width="112" x="111" y="211.9063"/><text fill="#000000" font-family="sans-serif" font-size="12" lengthAdjust="spacing" textLength="92" x="121" y="233.0449">4、整合输出信息</text><rect fill="#F1F1F1" height="33.9688" rx="12.5" ry="12.5" style="stroke:#181818;stroke-width:0.5;" width="112" x="111" y="265.875"/><text fill="#000000" font-family="sans-serif" font-size="12" lengthAdjust="spacing" textLength="92" x="121" y="287.0137">5、删除代码文件</text><ellipse cx="167" cy="330.8438" fill="none" rx="11" ry="11" style="stroke:#222222;stroke-width:1.0;"/><ellipse cx="167" cy="330.8438" fill="#222222" rx="6" ry="6" style="stroke:#111111;stroke-width:1.0;"/><line style="stroke:#181818;stroke-width:1.0;" x1="167" x2="167" y1="30" y2="50"/><polygon fill="#181818" points="163,40,167,50,171,40,167,44" style="stroke:#181818;stroke-width:1.0;"/><line style="stroke:#181818;stroke-width:1.0;" x1="167" x2="167" y1="83.9688" y2="103.9688"/><polygon fill="#181818" points="163,93.9688,167,103.9688,171,93.9688,167,97.9688" style="stroke:#181818;stroke-width:1.0;"/><line style="stroke:#181818;stroke-width:1.0;" x1="167" x2="167" y1="137.9375" y2="157.9375"/><polygon fill="#181818" points="163,147.9375,167,157.9375,171,147.9375,167,151.9375" style="stroke:#181818;stroke-width:1.0;"/><line style="stroke:#181818;stroke-width:1.0;" x1="167" x2="167" y1="191.9063" y2="211.9063"/><polygon fill="#181818" points="163,201.9063,167,211.9063,171,201.9063,167,205.9063" style="stroke:#181818;stroke-width:1.0;"/><line style="stroke:#181818;stroke-width:1.0;" x1="167" x2="167" y1="245.875" y2="265.875"/><polygon fill="#181818" points="163,255.875,167,265.875,171,255.875,167,259.875" style="stroke:#181818;stroke-width:1.0;"/><line style="stroke:#181818;stroke-width:1.0;" x1="167" x2="167" y1="299.8438" y2="319.8438"/><polygon fill="#181818" points="163,309.8438,167,319.8438,171,309.8438,167,313.8438" style="stroke:#181818;stroke-width:1.0;"/></g></svg>