<?xml version="1.0" encoding="UTF-8" standalone="no"?><svg xmlns="http://www.w3.org/2000/svg" xmlns:xlink="http://www.w3.org/1999/xlink" contentStyleType="text/css" height="250px" preserveAspectRatio="none" style="width:383px;height:250px;background:#FFFFFF;" version="1.1" viewBox="0 0 383 250" width="383px" zoomAndPan="magnify"><defs/><g><rect fill="#FFFFFF" height="159.6641" style="stroke:#181818;stroke-width:1.0;" width="10" x="35" y="46.2969"/><rect fill="#FFFFFF" height="138.5313" style="stroke:#181818;stroke-width:1.0;" width="10" x="181" y="67.4297"/><rect fill="#FFFFFF" height="80.2656" style="stroke:#181818;stroke-width:1.0;" width="10" x="186" y="125.6953"/><rect fill="#FFFFFF" height="109.3984" style="stroke:#181818;stroke-width:1.0;" width="10" x="340" y="96.5625"/><line style="stroke:#181818;stroke-width:0.5;stroke-dasharray:5.0,5.0;" x1="40" x2="40" y1="36.2969" y2="214.9609"/><line style="stroke:#181818;stroke-width:0.5;stroke-dasharray:5.0,5.0;" x1="186" x2="186" y1="36.2969" y2="214.9609"/><line style="stroke:#181818;stroke-width:0.5;stroke-dasharray:5.0,5.0;" x1="345" x2="345" y1="36.2969" y2="214.9609"/><rect fill="#FFA500" height="30.2969" rx="2.5" ry="2.5" style="stroke:#181818;stroke-width:0.5;" width="70" x="5" y="5"/><text fill="#000000" font-family="sans-serif" font-size="14" lengthAdjust="spacing" textLength="56" x="12" y="24.9951">判题模块</text><rect fill="#FFA500" height="30.2969" rx="2.5" ry="2.5" style="stroke:#181818;stroke-width:0.5;" width="70" x="5" y="213.9609"/><text fill="#000000" font-family="sans-serif" font-size="14" lengthAdjust="spacing" textLength="56" x="12" y="233.9561">判题模块</text><rect fill="#FFA500" height="30.2969" rx="2.5" ry="2.5" style="stroke:#181818;stroke-width:0.5;" width="70" x="151" y="5"/><text fill="#000000" font-family="sans-serif" font-size="14" lengthAdjust="spacing" textLength="56" x="158" y="24.9951">代码沙箱</text><rect fill="#FFA500" height="30.2969" rx="2.5" ry="2.5" style="stroke:#181818;stroke-width:0.5;" width="70" x="151" y="213.9609"/><text fill="#000000" font-family="sans-serif" font-size="14" lengthAdjust="spacing" textLength="56" x="158" y="233.9561">代码沙箱</text><rect fill="#FFA500" height="30.2969" rx="2.5" ry="2.5" style="stroke:#181818;stroke-width:0.5;" width="64" x="313" y="5"/><text fill="#000000" font-family="sans-serif" font-size="14" lengthAdjust="spacing" textLength="50" x="320" y="24.9951">Docker</text><rect fill="#FFA500" height="30.2969" rx="2.5" ry="2.5" style="stroke:#181818;stroke-width:0.5;" width="64" x="313" y="213.9609"/><text fill="#000000" font-family="sans-serif" font-size="14" lengthAdjust="spacing" textLength="50" x="320" y="233.9561">Docker</text><rect fill="#FFFFFF" height="159.6641" style="stroke:#181818;stroke-width:1.0;" width="10" x="35" y="46.2969"/><rect fill="#FFFFFF" height="138.5313" style="stroke:#181818;stroke-width:1.0;" width="10" x="181" y="67.4297"/><rect fill="#FFFFFF" height="80.2656" style="stroke:#181818;stroke-width:1.0;" width="10" x="186" y="125.6953"/><rect fill="#FFFFFF" height="109.3984" style="stroke:#181818;stroke-width:1.0;" width="10" x="340" y="96.5625"/><polygon fill="#181818" points="169,63.4297,179,67.4297,169,71.4297,173,67.4297" style="stroke:#181818;stroke-width:1.0;"/><line style="stroke:#181818;stroke-width:1.0;" x1="45" x2="175" y1="67.4297" y2="67.4297"/><text fill="#000000" font-family="sans-serif" font-size="13" font-weight="bold" lengthAdjust="spacing" textLength="9" x="52" y="62.3638">1</text><text fill="#000000" font-family="sans-serif" font-size="13" lengthAdjust="spacing" textLength="104" x="65" y="62.3638">提交代码执行请求</text><polygon fill="#181818" points="328,92.5625,338,96.5625,328,100.5625,332,96.5625" style="stroke:#181818;stroke-width:1.0;"/><line style="stroke:#181818;stroke-width:1.0;" x1="191" x2="334" y1="96.5625" y2="96.5625"/><text fill="#000000" font-family="sans-serif" font-size="13" font-weight="bold" lengthAdjust="spacing" textLength="9" x="198" y="91.4966">2</text><text fill="#000000" font-family="sans-serif" font-size="13" lengthAdjust="spacing" textLength="117" x="211" y="91.4966">创建容器并运行代码</text><polygon fill="#181818" points="207,121.6953,197,125.6953,207,129.6953,203,125.6953" style="stroke:#181818;stroke-width:1.0;"/><line style="stroke:#181818;stroke-width:1.0;stroke-dasharray:2.0,2.0;" x1="201" x2="339" y1="125.6953" y2="125.6953"/><text fill="#000000" font-family="sans-serif" font-size="13" font-weight="bold" lengthAdjust="spacing" textLength="9" x="213" y="120.6294">3</text><text fill="#000000" font-family="sans-serif" font-size="13" lengthAdjust="spacing" textLength="78" x="226" y="120.6294">返回运行结果</text><line style="stroke:#181818;stroke-width:1.0;" x1="196" x2="238" y1="154.8281" y2="154.8281"/><line style="stroke:#181818;stroke-width:1.0;" x1="238" x2="238" y1="154.8281" y2="167.8281"/><line style="stroke:#181818;stroke-width:1.0;" x1="197" x2="238" y1="167.8281" y2="167.8281"/><polygon fill="#181818" points="207,163.8281,197,167.8281,207,171.8281,203,167.8281" style="stroke:#181818;stroke-width:1.0;"/><text fill="#000000" font-family="sans-serif" font-size="13" font-weight="bold" lengthAdjust="spacing" textLength="9" x="203" y="149.7622">4</text><text fill="#000000" font-family="sans-serif" font-size="13" lengthAdjust="spacing" textLength="104" x="216" y="149.7622">整合代码执行结果</text><polygon fill="#181818" points="56,192.9609,46,196.9609,56,200.9609,52,196.9609" style="stroke:#181818;stroke-width:1.0;"/><line style="stroke:#181818;stroke-width:1.0;stroke-dasharray:2.0,2.0;" x1="50" x2="185" y1="196.9609" y2="196.9609"/><text fill="#000000" font-family="sans-serif" font-size="13" font-weight="bold" lengthAdjust="spacing" textLength="9" x="62" y="191.895">5</text><text fill="#000000" font-family="sans-serif" font-size="13" lengthAdjust="spacing" textLength="78" x="75" y="191.895">返回整合结果</text></g></svg>