<?xml version="1.0" encoding="UTF-8" standalone="no"?><svg xmlns="http://www.w3.org/2000/svg" xmlns:xlink="http://www.w3.org/1999/xlink" contentStyleType="text/css" height="416px" preserveAspectRatio="none" style="width:450px;height:416px;background:#FFFFFF;" version="1.1" viewBox="0 0 450 416" width="450px" zoomAndPan="magnify"><defs/><g><ellipse cx="177.5" cy="20" fill="#222222" rx="10" ry="10" style="stroke:#222222;stroke-width:1.0;"/><rect fill="#F1F1F1" height="33.9688" rx="12.5" ry="12.5" style="stroke:#181818;stroke-width:0.5;" width="147" x="104" y="50"/><text fill="#000000" font-family="sans-serif" font-size="12" lengthAdjust="spacing" textLength="127" x="114" y="71.1387">触发判题方法 doJudge</text><polygon fill="#F1F1F1" points="103,103.9688,252,103.9688,264,115.9688,252,127.9688,103,127.9688,91,115.9688,103,103.9688" style="stroke:#181818;stroke-width:0.5;"/><text fill="#000000" font-family="sans-serif" font-size="11" lengthAdjust="spacing" textLength="149" x="103" y="119.7769">读取CodeSandboxType属性</text><text fill="#000000" font-family="sans-serif" font-size="11" lengthAdjust="spacing" textLength="39" x="52" y="113.3745">default</text><text fill="#000000" font-family="sans-serif" font-size="11" lengthAdjust="spacing" textLength="174" x="264" y="113.3745">example / remote / third_party</text><rect fill="#F1F1F1" height="33.9688" rx="12.5" ry="12.5" style="stroke:#181818;stroke-width:0.5;" width="140" x="11" y="137.9688"/><text fill="#000000" font-family="sans-serif" font-size="12" lengthAdjust="spacing" textLength="120" x="21" y="159.1074">调用 example 判题类</text><rect fill="#F1F1F1" height="33.9688" rx="12.5" ry="12.5" style="stroke:#181818;stroke-width:0.5;" width="104" x="222" y="137.9688"/><text fill="#000000" font-family="sans-serif" font-size="12" lengthAdjust="spacing" textLength="84" x="232" y="159.1074">调用对应判题类</text><polygon fill="#F1F1F1" points="177.5,177.9375,189.5,189.9375,177.5,201.9375,165.5,189.9375,177.5,177.9375" style="stroke:#181818;stroke-width:0.5;"/><rect fill="#F1F1F1" height="33.9688" rx="12.5" ry="12.5" style="stroke:#181818;stroke-width:0.5;" width="178" x="88.5" y="221.9375"/><text fill="#000000" font-family="sans-serif" font-size="12" lengthAdjust="spacing" textLength="158" x="98.5" y="243.0762">触发判题方法 executeCode</text><rect fill="#F1F1F1" height="33.9688" rx="12.5" ry="12.5" style="stroke:#181818;stroke-width:0.5;" width="92" x="131.5" y="275.9063"/><text fill="#000000" font-family="sans-serif" font-size="12" lengthAdjust="spacing" textLength="72" x="141.5" y="297.0449">调用代码沙箱</text><rect fill="#F1F1F1" height="33.9688" rx="12.5" ry="12.5" style="stroke:#181818;stroke-width:0.5;" width="176" x="89.5" y="329.875"/><text fill="#000000" font-family="sans-serif" font-size="12" lengthAdjust="spacing" textLength="156" x="99.5" y="351.0137">整理返回结果并提交到数据库</text><ellipse cx="177.5" cy="394.8438" fill="none" rx="11" ry="11" style="stroke:#222222;stroke-width:1.0;"/><ellipse cx="177.5" cy="394.8438" fill="#222222" rx="6" ry="6" style="stroke:#111111;stroke-width:1.0;"/><line style="stroke:#181818;stroke-width:1.0;" x1="177.5" x2="177.5" y1="30" y2="50"/><polygon fill="#181818" points="173.5,40,177.5,50,181.5,40,177.5,44" style="stroke:#181818;stroke-width:1.0;"/><line style="stroke:#181818;stroke-width:1.0;" x1="91" x2="81" y1="115.9688" y2="115.9688"/><line style="stroke:#181818;stroke-width:1.0;" x1="81" x2="81" y1="115.9688" y2="137.9688"/><polygon fill="#181818" points="77,127.9688,81,137.9688,85,127.9688,81,131.9688" style="stroke:#181818;stroke-width:1.0;"/><line style="stroke:#181818;stroke-width:1.0;" x1="264" x2="274" y1="115.9688" y2="115.9688"/><line style="stroke:#181818;stroke-width:1.0;" x1="274" x2="274" y1="115.9688" y2="137.9688"/><polygon fill="#181818" points="270,127.9688,274,137.9688,278,127.9688,274,131.9688" style="stroke:#181818;stroke-width:1.0;"/><line style="stroke:#181818;stroke-width:1.0;" x1="81" x2="81" y1="171.9375" y2="189.9375"/><line style="stroke:#181818;stroke-width:1.0;" x1="81" x2="165.5" y1="189.9375" y2="189.9375"/><polygon fill="#181818" points="155.5,185.9375,165.5,189.9375,155.5,193.9375,159.5,189.9375" style="stroke:#181818;stroke-width:1.0;"/><line style="stroke:#181818;stroke-width:1.0;" x1="274" x2="274" y1="171.9375" y2="189.9375"/><line style="stroke:#181818;stroke-width:1.0;" x1="274" x2="189.5" y1="189.9375" y2="189.9375"/><polygon fill="#181818" points="199.5,185.9375,189.5,189.9375,199.5,193.9375,195.5,189.9375" style="stroke:#181818;stroke-width:1.0;"/><line style="stroke:#181818;stroke-width:1.0;" x1="177.5" x2="177.5" y1="83.9688" y2="103.9688"/><polygon fill="#181818" points="173.5,93.9688,177.5,103.9688,181.5,93.9688,177.5,97.9688" style="stroke:#181818;stroke-width:1.0;"/><line style="stroke:#181818;stroke-width:1.0;" x1="177.5" x2="177.5" y1="201.9375" y2="221.9375"/><polygon fill="#181818" points="173.5,211.9375,177.5,221.9375,181.5,211.9375,177.5,215.9375" style="stroke:#181818;stroke-width:1.0;"/><line style="stroke:#181818;stroke-width:1.0;" x1="177.5" x2="177.5" y1="255.9063" y2="275.9063"/><polygon fill="#181818" points="173.5,265.9063,177.5,275.9063,181.5,265.9063,177.5,269.9063" style="stroke:#181818;stroke-width:1.0;"/><line style="stroke:#181818;stroke-width:1.0;" x1="177.5" x2="177.5" y1="309.875" y2="329.875"/><polygon fill="#181818" points="173.5,319.875,177.5,329.875,181.5,319.875,177.5,323.875" style="stroke:#181818;stroke-width:1.0;"/><line style="stroke:#181818;stroke-width:1.0;" x1="177.5" x2="177.5" y1="363.8438" y2="383.8438"/><polygon fill="#181818" points="173.5,373.8438,177.5,383.8438,181.5,373.8438,177.5,377.8438" style="stroke:#181818;stroke-width:1.0;"/></g></svg>