<?xml version="1.0" encoding="UTF-8" standalone="no"?><svg xmlns="http://www.w3.org/2000/svg" xmlns:xlink="http://www.w3.org/1999/xlink" contentStyleType="text/css" height="434px" preserveAspectRatio="none" style="width:796px;height:434px;background:#FFFFFF;" version="1.1" viewBox="0 0 796 434" width="796px" zoomAndPan="magnify"><defs/><g><rect fill="#FFFFFF" height="253.0625" style="stroke:#181818;stroke-width:1.0;" width="10" x="17" y="91.2969"/><rect fill="#FFFFFF" height="231.9297" style="stroke:#181818;stroke-width:1.0;" width="10" x="189" y="112.4297"/><rect fill="#FFFFFF" height="202.7969" style="stroke:#181818;stroke-width:1.0;" width="10" x="314" y="141.5625"/><rect fill="#FFFFFF" height="106.3984" style="stroke:#181818;stroke-width:1.0;" width="10" x="319" y="199.8281"/><rect fill="#FFFFFF" height="173.6641" style="stroke:#181818;stroke-width:1.0;" width="10" x="486" y="170.6953"/><line style="stroke:#181818;stroke-width:0.5;stroke-dasharray:5.0,5.0;" x1="22" x2="22" y1="81.2969" y2="353.3594"/><line style="stroke:#181818;stroke-width:0.5;stroke-dasharray:5.0,5.0;" x1="194" x2="194" y1="81.2969" y2="353.3594"/><line style="stroke:#181818;stroke-width:0.5;stroke-dasharray:5.0,5.0;" x1="319" x2="319" y1="81.2969" y2="353.3594"/><line style="stroke:#181818;stroke-width:0.5;stroke-dasharray:5.0,5.0;" x1="491" x2="491" y1="81.2969" y2="353.3594"/><text fill="#000000" font-family="sans-serif" font-size="14" lengthAdjust="spacing" textLength="28" x="5" y="77.9951">用户</text><ellipse cx="22" cy="13.5" fill="#E2E2F0" rx="8" ry="8" style="stroke:#181818;stroke-width:0.5;"/><path d="M22,21.5 L22,48.5 M9,29.5 L35,29.5 M22,48.5 L9,63.5 M22,48.5 L35,63.5 " fill="none" style="stroke:#181818;stroke-width:0.5;"/><text fill="#000000" font-family="sans-serif" font-size="14" lengthAdjust="spacing" textLength="28" x="5" y="365.3545">用户</text><ellipse cx="22" cy="377.1563" fill="#E2E2F0" rx="8" ry="8" style="stroke:#181818;stroke-width:0.5;"/><path d="M22,385.1563 L22,412.1563 M9,393.1563 L35,393.1563 M22,412.1563 L9,427.1563 M22,412.1563 L35,427.1563 " fill="none" style="stroke:#181818;stroke-width:0.5;"/><rect fill="#E2E2F0" height="30.2969" rx="2.5" ry="2.5" style="stroke:#181818;stroke-width:0.5;" width="56" x="166" y="50"/><text fill="#000000" font-family="sans-serif" font-size="14" lengthAdjust="spacing" textLength="42" x="173" y="69.9951">浏览器</text><rect fill="#E2E2F0" height="30.2969" rx="2.5" ry="2.5" style="stroke:#181818;stroke-width:0.5;" width="56" x="166" y="352.3594"/><text fill="#000000" font-family="sans-serif" font-size="14" lengthAdjust="spacing" textLength="42" x="173" y="372.3545">浏览器</text><rect fill="#90EE90" height="30.2969" rx="2.5" ry="2.5" style="stroke:#181818;stroke-width:0.5;" width="56" x="291" y="50"/><text fill="#000000" font-family="sans-serif" font-size="14" lengthAdjust="spacing" textLength="42" x="298" y="69.9951">服务端</text><rect fill="#90EE90" height="30.2969" rx="2.5" ry="2.5" style="stroke:#181818;stroke-width:0.5;" width="56" x="291" y="352.3594"/><text fill="#000000" font-family="sans-serif" font-size="14" lengthAdjust="spacing" textLength="42" x="298" y="372.3545">服务端</text><rect fill="#FFA500" height="30.2969" rx="2.5" ry="2.5" style="stroke:#181818;stroke-width:0.5;" width="56" x="463" y="50"/><text fill="#000000" font-family="sans-serif" font-size="14" lengthAdjust="spacing" textLength="42" x="470" y="69.9951">数据库</text><rect fill="#FFA500" height="30.2969" rx="2.5" ry="2.5" style="stroke:#181818;stroke-width:0.5;" width="56" x="463" y="352.3594"/><text fill="#000000" font-family="sans-serif" font-size="14" lengthAdjust="spacing" textLength="42" x="470" y="372.3545">数据库</text><rect fill="#FFFFFF" height="253.0625" style="stroke:#181818;stroke-width:1.0;" width="10" x="17" y="91.2969"/><rect fill="#FFFFFF" height="231.9297" style="stroke:#181818;stroke-width:1.0;" width="10" x="189" y="112.4297"/><rect fill="#FFFFFF" height="202.7969" style="stroke:#181818;stroke-width:1.0;" width="10" x="314" y="141.5625"/><rect fill="#FFFFFF" height="106.3984" style="stroke:#181818;stroke-width:1.0;" width="10" x="319" y="199.8281"/><rect fill="#FFFFFF" height="173.6641" style="stroke:#181818;stroke-width:1.0;" width="10" x="486" y="170.6953"/><polygon fill="#181818" points="177,108.4297,187,112.4297,177,116.4297,181,112.4297" style="stroke:#181818;stroke-width:1.0;"/><line style="stroke:#181818;stroke-width:1.0;" x1="27" x2="183" y1="112.4297" y2="112.4297"/><text fill="#000000" font-family="sans-serif" font-size="13" font-weight="bold" lengthAdjust="spacing" textLength="9" x="34" y="107.3638">1</text><text fill="#000000" font-family="sans-serif" font-size="13" lengthAdjust="spacing" textLength="130" x="47" y="107.3638">输入邮箱、账号、密码</text><polygon fill="#181818" points="302,137.5625,312,141.5625,302,145.5625,306,141.5625" style="stroke:#181818;stroke-width:1.0;"/><line style="stroke:#181818;stroke-width:1.0;" x1="199" x2="308" y1="141.5625" y2="141.5625"/><text fill="#000000" font-family="sans-serif" font-size="13" font-weight="bold" lengthAdjust="spacing" textLength="9" x="206" y="136.4966">2</text><text fill="#000000" font-family="sans-serif" font-size="13" lengthAdjust="spacing" textLength="78" x="219" y="136.4966">发送注册请求</text><polygon fill="#181818" points="474,166.6953,484,170.6953,474,174.6953,478,170.6953" style="stroke:#181818;stroke-width:1.0;"/><line style="stroke:#181818;stroke-width:1.0;" x1="324" x2="480" y1="170.6953" y2="170.6953"/><text fill="#000000" font-family="sans-serif" font-size="13" font-weight="bold" lengthAdjust="spacing" textLength="9" x="331" y="165.6294">3</text><text fill="#000000" font-family="sans-serif" font-size="13" lengthAdjust="spacing" textLength="130" x="344" y="165.6294">根据账号从数据库查询</text><polygon fill="#181818" points="340,195.8281,330,199.8281,340,203.8281,336,199.8281" style="stroke:#181818;stroke-width:1.0;"/><line style="stroke:#181818;stroke-width:1.0;stroke-dasharray:2.0,2.0;" x1="334" x2="485" y1="199.8281" y2="199.8281"/><text fill="#000000" font-family="sans-serif" font-size="13" font-weight="bold" lengthAdjust="spacing" textLength="9" x="346" y="194.7622">4</text><text fill="#000000" font-family="sans-serif" font-size="13" lengthAdjust="spacing" textLength="78" x="359" y="194.7622">返回查询结果</text><line style="stroke:#181818;stroke-width:1.0;" x1="329" x2="371" y1="228.9609" y2="228.9609"/><line style="stroke:#181818;stroke-width:1.0;" x1="371" x2="371" y1="228.9609" y2="241.9609"/><line style="stroke:#181818;stroke-width:1.0;" x1="330" x2="371" y1="241.9609" y2="241.9609"/><polygon fill="#181818" points="340,237.9609,330,241.9609,340,245.9609,336,241.9609" style="stroke:#181818;stroke-width:1.0;"/><text fill="#000000" font-family="sans-serif" font-size="13" font-weight="bold" lengthAdjust="spacing" textLength="9" x="336" y="223.895">5</text><text fill="#000000" font-family="sans-serif" font-size="13" lengthAdjust="spacing" textLength="78" x="349" y="223.895">验证查询结果</text><path d="M334,254.9609 L334,279.9609 L789,279.9609 L789,264.9609 L779,254.9609 L334,254.9609 " fill="#FEFFDD" style="stroke:#181818;stroke-width:0.5;"/><path d="M779,254.9609 L779,264.9609 L789,264.9609 L779,254.9609 " fill="#FEFFDD" style="stroke:#181818;stroke-width:0.5;"/><text fill="#000000" font-family="sans-serif" font-size="13" lengthAdjust="spacing" textLength="434" x="340" y="272.0278">如果查询结果为空：保存数据到数据库;查询结果不为空，返回“账号已注册”</text><polygon fill="#181818" points="210,302.2266,200,306.2266,210,310.2266,206,306.2266" style="stroke:#181818;stroke-width:1.0;"/><line style="stroke:#181818;stroke-width:1.0;stroke-dasharray:2.0,2.0;" x1="204" x2="313" y1="306.2266" y2="306.2266"/><text fill="#000000" font-family="sans-serif" font-size="13" font-weight="bold" lengthAdjust="spacing" textLength="9" x="216" y="301.1606">6</text><text fill="#000000" font-family="sans-serif" font-size="13" lengthAdjust="spacing" textLength="78" x="229" y="301.1606">返回请求结果</text><polygon fill="#181818" points="38,331.3594,28,335.3594,38,339.3594,34,335.3594" style="stroke:#181818;stroke-width:1.0;"/><line style="stroke:#181818;stroke-width:1.0;stroke-dasharray:2.0,2.0;" x1="32" x2="188" y1="335.3594" y2="335.3594"/><text fill="#000000" font-family="sans-serif" font-size="13" font-weight="bold" lengthAdjust="spacing" textLength="9" x="44" y="330.2935">7</text><text fill="#000000" font-family="sans-serif" font-size="13" lengthAdjust="spacing" textLength="91" x="57" y="330.2935">渲染结果到页面</text></g></svg>